<svg version="1.1" id="Layer_1" xmlns="http://www.w3.org/2000/svg" xmlns:xlink="http://www.w3.org/1999/xlink" x="0px" y="0px"
	 width="100%" viewBox="0 0 369 91" enable-background="new 0 0 369 91" xml:space="preserve">
<path fill="#121928" opacity="1.000000" stroke="none" 
	d="
M277.000000,92.000000 
	C184.666672,92.000000 92.833359,92.000000 1.000025,92.000000 
	C1.000016,61.666679 1.000016,31.333363 1.000008,1.000033 
	C123.999969,1.000022 246.999939,1.000022 369.999939,1.000011 
	C369.999939,31.333300 369.999939,61.666599 369.999969,91.999954 
	C339.166656,92.000000 308.333344,92.000000 277.000000,92.000000 
M22.991537,53.466812 
	C23.464476,57.857582 22.302702,64.464638 24.706478,66.237640 
	C33.047256,72.389702 42.985672,75.830780 53.548439,76.734718 
	C53.840477,76.759705 54.152321,76.480392 54.463425,76.366119 
	C60.847706,74.021133 67.216637,71.632858 73.624840,69.355080 
	C77.357872,68.028198 79.284561,65.637085 79.236725,61.549042 
	C79.141289,53.393715 79.170265,45.236149 79.230484,37.080116 
	C79.261162,32.924942 77.610397,30.205534 73.502136,28.845428 
	C66.888695,26.655941 60.386604,24.130520 53.776157,21.931305 
	C52.321823,21.447462 50.461613,21.280027 49.043209,21.744799 
	C42.108326,24.017170 35.258995,26.550814 28.380905,28.996256 
	C24.616743,30.334566 22.902512,32.999847 22.970940,36.997139 
	C23.059250,42.155842 22.991869,47.317215 22.991537,53.466812 
M112.330276,66.007896 
	C117.502876,66.163330 122.648560,65.782074 124.873352,60.161686 
	C126.698380,55.551212 124.664078,51.840206 121.676903,50.015095 
	C122.731506,46.325935 124.893990,42.864441 124.125572,40.271526 
	C123.387543,37.781170 119.842354,34.985775 117.122757,34.468246 
	C112.223419,33.535923 107.019394,34.204758 102.157478,34.204758 
	C102.157478,45.036427 102.157478,55.410946 102.157478,66.007912 
	C105.445717,66.007912 108.414635,66.007912 112.330276,66.007896 
M252.559647,40.056309 
	C245.807281,32.100914 236.767029,34.210377 228.060730,34.111786 
	C228.060730,44.879112 228.060730,55.251514 228.060730,66.010315 
	C231.562805,66.010315 234.849030,66.048416 238.134125,66.003784 
	C253.137955,65.799942 260.117401,53.878525 252.559647,40.056309 
M279.441864,41.805107 
	C278.052917,41.265381 276.705658,40.456024 275.267670,40.233807 
	C269.794861,39.388107 264.966461,40.635525 261.572693,45.350662 
	C258.452209,49.686192 258.425446,55.944683 261.341705,60.434776 
	C264.070709,64.636604 269.640594,66.958435 274.923248,65.819893 
	C279.979523,64.730141 283.760681,61.967751 285.117401,56.701839 
	C286.639984,50.792156 285.110077,45.859638 279.441864,41.805107 
M163.043411,42.273277 
	C154.580292,38.074898 146.196396,40.281906 143.087936,47.526447 
	C140.435226,53.708866 142.594742,60.937859 148.059830,64.169807 
	C153.775909,67.550194 161.648071,66.191254 165.695938,61.125381 
	C169.926315,55.831089 169.070618,48.230721 163.043411,42.273277 
M207.081467,59.872391 
	C207.143066,58.637619 207.204651,57.402851 207.276398,55.964771 
	C212.888290,59.033627 214.082016,68.492241 223.325653,65.410362 
	C219.459778,61.150574 215.830933,57.151962 212.056595,52.993027 
	C215.965607,48.710129 219.599289,44.728893 223.384872,40.581215 
	C213.771912,37.247467 212.847839,47.438614 206.882050,50.404148 
	C206.882050,43.909340 206.882050,37.965435 206.882050,31.690306 
	C205.016068,31.806458 203.488968,31.901516 202.116989,31.986917 
	C202.116989,43.596302 202.116989,54.678177 202.116989,66.053490 
	C203.958237,65.948380 205.497177,65.860527 207.081451,65.770088 
	C207.081451,63.747017 207.081451,62.249706 207.081467,59.872391 
M335.267120,53.259247 
	C332.147552,52.149658 328.961212,51.189655 325.946686,49.844654 
	C324.967987,49.407982 323.792908,47.893333 323.890442,47.001080 
	C323.983093,46.153667 325.613312,44.871178 326.583588,44.856606 
	C328.267883,44.831314 330.004028,45.527206 331.645966,46.121002 
	C333.585938,46.822571 335.449036,47.736645 338.360443,48.998512 
	C335.607574,40.689220 329.287750,37.831749 322.798065,41.176907 
	C320.690369,42.263317 318.477692,45.215206 318.345642,47.434734 
	C318.232544,49.336632 320.657745,51.963074 322.624969,53.264439 
	C324.889343,54.762409 327.954315,54.994545 330.526062,56.111519 
	C331.524597,56.545204 332.826630,57.986607 332.719757,58.802528 
	C332.601074,59.708736 331.060516,61.046169 330.088257,61.090820 
	C328.230652,61.176121 326.262024,60.688004 324.478241,60.049980 
	C322.424561,59.315426 320.521057,58.161003 317.728210,56.782021 
	C319.310516,64.621368 325.796753,67.705391 332.751770,65.284019 
	C338.578156,63.255573 339.800812,58.733372 335.267120,53.259247 
M175.813980,43.272720 
	C174.939926,44.475220 173.860092,45.578754 173.226242,46.896767 
	C169.890656,53.832592 172.845444,62.291599 179.461823,65.030426 
	C186.400314,67.902588 193.442688,64.997841 196.508957,56.671551 
	C193.537643,57.888439 191.288620,58.369274 189.583969,59.602543 
	C186.386078,61.916168 182.159286,62.028111 179.659286,59.372818 
	C176.989624,56.537323 176.875702,49.821640 179.446884,46.852665 
	C181.856110,44.070709 186.148895,44.008476 189.342850,46.220943 
	C191.168259,47.485420 193.501923,48.016190 196.752640,49.346107 
	C192.788101,39.550571 184.795105,37.596554 175.813980,43.272720 
M296.043152,47.759506 
	C299.638031,44.107418 303.091095,43.732994 306.497223,46.112698 
	C308.353607,47.409645 310.686310,48.024818 313.882172,49.417118 
	C311.088837,41.771370 306.242126,39.056515 299.632141,40.106365 
	C293.267059,41.117321 289.008331,46.453587 289.146088,53.245571 
	C289.280151,59.853180 293.481018,64.917084 299.640533,65.896088 
	C306.132111,66.927856 311.079987,64.105812 313.743988,56.605698 
	C310.780334,57.879082 308.830963,58.951408 306.745667,59.551109 
	C304.329651,60.245911 301.504669,61.409245 299.397644,60.719131 
	C297.547363,60.113106 295.820679,57.413826 295.188904,55.296158 
	C294.582703,53.264168 295.453644,50.791515 296.043152,47.759506 
M136.783203,63.149597 
	C136.783203,52.780499 136.783203,42.411400 136.783203,31.953632 
	C134.596237,31.953632 133.020477,31.953632 131.393860,31.953632 
	C131.393860,43.431610 131.393860,54.614826 131.393860,67.119453 
	C133.686295,65.822029 135.230484,64.948082 136.783203,63.149597 
z"/>
<path fill="#FAFAFA" opacity="1.000000" stroke="none" 
	d="
M22.991537,52.972122 
	C22.991869,47.317215 23.059250,42.155842 22.970940,36.997139 
	C22.902512,32.999847 24.616743,30.334566 28.380905,28.996256 
	C35.258995,26.550814 42.108326,24.017170 49.043209,21.744799 
	C50.461613,21.280027 52.321823,21.447462 53.776157,21.931305 
	C60.386604,24.130520 66.888695,26.655941 73.502136,28.845428 
	C77.610397,30.205534 79.261162,32.924942 79.230484,37.080116 
	C79.170265,45.236149 79.141289,53.393715 79.236725,61.549042 
	C79.284561,65.637085 77.357872,68.028198 73.624840,69.355080 
	C67.216637,71.632858 60.847706,74.021133 54.463425,76.366119 
	C54.152321,76.480392 53.840477,76.759705 53.548439,76.734718 
	C42.985672,75.830780 33.047256,72.389702 24.706478,66.237640 
	C22.302702,64.464638 23.464476,57.857582 22.991537,52.972122 
M72.160217,44.954281 
	C72.071037,44.051281 71.981857,43.148277 71.861610,41.930721 
	C66.770386,43.723473 62.036987,45.221680 57.467594,47.115582 
	C56.298855,47.599998 54.937004,49.303005 54.881397,50.502586 
	C54.613049,56.291904 54.760555,62.100498 54.760555,68.654945 
	C60.730236,66.534843 67.137283,65.751694 71.184242,62.244904 
	C73.495819,60.241859 71.973137,53.802277 72.153496,49.359325 
	C72.200684,48.196823 72.160576,47.030777 72.160217,44.954281 
M65.288887,36.876621 
	C66.499619,36.306484 67.710350,35.736351 68.753487,35.245132 
	C56.879711,27.280901 45.196342,27.805063 33.595543,35.079739 
	C33.651485,35.219631 33.672146,35.447578 33.768646,35.486259 
	C35.299805,36.099869 36.954540,36.494335 38.360767,37.315903 
	C47.162556,42.458248 55.861279,41.842335 65.288887,36.876621 
z"/>
<path fill="#FAFAFB" opacity="1.000000" stroke="none" 
	d="
M111.856918,66.007904 
	C108.414635,66.007912 105.445717,66.007912 102.157478,66.007912 
	C102.157478,55.410946 102.157478,45.036427 102.157478,34.204758 
	C107.019394,34.204758 112.223419,33.535923 117.122757,34.468246 
	C119.842354,34.985775 123.387543,37.781170 124.125572,40.271526 
	C124.893990,42.864441 122.731506,46.325935 121.676903,50.015095 
	C124.664078,51.840206 126.698380,55.551212 124.873352,60.161686 
	C122.648560,65.782074 117.502876,66.163330 111.856918,66.007904 
M107.049103,56.505062 
	C107.049103,58.117428 107.049103,59.729794 107.049103,63.027149 
	C111.811279,61.544762 115.757835,60.558765 119.424004,58.938385 
	C120.041229,58.665581 120.125435,55.174274 119.291344,53.990883 
	C116.242867,49.665756 111.636467,51.527348 107.238441,51.332153 
	C107.164246,53.003242 107.106682,54.299618 107.049103,56.505062 
M107.249626,38.974728 
	C107.249626,41.563168 107.249626,44.151604 107.249626,46.875828 
	C110.232979,46.875828 112.982246,47.343590 115.441177,46.700752 
	C116.921234,46.313828 118.847733,44.245525 118.922531,42.844650 
	C118.994431,41.497913 117.181046,39.230953 115.764931,38.806408 
	C113.322426,38.074146 110.545769,38.456451 107.249626,38.974728 
z"/>
<path fill="#F8F9F9" opacity="1.000000" stroke="none" 
	d="
M252.771637,40.360428 
	C260.117401,53.878525 253.137955,65.799942 238.134125,66.003784 
	C234.849030,66.048416 231.562805,66.010315 228.060730,66.010315 
	C228.060730,55.251514 228.060730,44.879112 228.060730,34.111786 
	C236.767029,34.210377 245.807281,32.100914 252.771637,40.360428 
M233.070145,45.614017 
	C233.070145,50.869556 233.070145,56.125095 233.070145,61.588036 
	C239.301590,61.899353 245.210693,62.427402 248.592941,56.601189 
	C251.143616,52.207413 251.104965,47.223438 248.190399,42.909409 
	C244.578613,37.563404 238.968475,38.135170 233.070145,38.435867 
	C233.070145,40.737068 233.070145,42.694302 233.070145,45.614017 
z"/>
<path fill="#F0F1F2" opacity="1.000000" stroke="none" 
	d="
M279.785767,41.974464 
	C285.110077,45.859638 286.639984,50.792156 285.117401,56.701839 
	C283.760681,61.967751 279.979523,64.730141 274.923248,65.819893 
	C269.640594,66.958435 264.070709,64.636604 261.341705,60.434776 
	C258.425446,55.944683 258.452209,49.686192 261.572693,45.350662 
	C264.966461,40.635525 269.794861,39.388107 275.267670,40.233807 
	C276.705658,40.456024 278.052917,41.265381 279.785767,41.974464 
M268.515717,60.364101 
	C272.284943,61.971668 276.321564,61.908257 278.168518,58.199455 
	C279.521027,55.483562 279.581848,51.498985 278.748474,48.486530 
	C277.815948,45.115799 274.124329,43.987976 270.887360,45.057510 
	C268.775970,45.755131 266.260895,47.570297 265.497894,49.504635 
	C264.070190,53.124062 264.289612,57.072845 268.515717,60.364101 
z"/>
<path fill="#F5F5F6" opacity="1.000000" stroke="none" 
	d="
M163.335205,42.511204 
	C169.070618,48.230721 169.926315,55.831089 165.695938,61.125381 
	C161.648071,66.191254 153.775909,67.550194 148.059830,64.169807 
	C142.594742,60.937859 140.435226,53.708866 143.087936,47.526447 
	C146.196396,40.281906 154.580292,38.074898 163.335205,42.511204 
M150.687302,60.027760 
	C154.483978,62.059471 158.083466,61.907810 160.955307,58.519978 
	C163.582886,55.420300 163.650589,51.805729 161.676483,48.346378 
	C159.790787,45.041973 156.639709,44.210602 153.106903,44.989243 
	C147.295090,46.270184 145.803619,53.461807 150.687302,60.027760 
z"/>
<path fill="#FAFAFA" opacity="1.000000" stroke="none" 
	d="
M207.081451,60.312393 
	C207.081451,62.249706 207.081451,63.747017 207.081451,65.770088 
	C205.497177,65.860527 203.958237,65.948380 202.116989,66.053490 
	C202.116989,54.678177 202.116989,43.596302 202.116989,31.986917 
	C203.488968,31.901516 205.016068,31.806458 206.882050,31.690306 
	C206.882050,37.965435 206.882050,43.909340 206.882050,50.404148 
	C212.847839,47.438614 213.771912,37.247467 223.384872,40.581215 
	C219.599289,44.728893 215.965607,48.710129 212.056595,52.993027 
	C215.830933,57.151962 219.459778,61.150574 223.325653,65.410362 
	C214.082016,68.492241 212.888290,59.033627 207.276398,55.964771 
	C207.204651,57.402851 207.143066,58.637619 207.081451,60.312393 
z"/>
<path fill="#F2F3F4" opacity="1.000000" stroke="none" 
	d="
M335.568359,53.505543 
	C339.800812,58.733372 338.578156,63.255573 332.751770,65.284019 
	C325.796753,67.705391 319.310516,64.621368 317.728210,56.782021 
	C320.521057,58.161003 322.424561,59.315426 324.478241,60.049980 
	C326.262024,60.688004 328.230652,61.176121 330.088257,61.090820 
	C331.060516,61.046169 332.601074,59.708736 332.719757,58.802528 
	C332.826630,57.986607 331.524597,56.545204 330.526062,56.111519 
	C327.954315,54.994545 324.889343,54.762409 322.624969,53.264439 
	C320.657745,51.963074 318.232544,49.336632 318.345642,47.434734 
	C318.477692,45.215206 320.690369,42.263317 322.798065,41.176907 
	C329.287750,37.831749 335.607574,40.689220 338.360443,48.998512 
	C335.449036,47.736645 333.585938,46.822571 331.645966,46.121002 
	C330.004028,45.527206 328.267883,44.831314 326.583588,44.856606 
	C325.613312,44.871178 323.983093,46.153667 323.890442,47.001080 
	C323.792908,47.893333 324.967987,49.407982 325.946686,49.844654 
	C328.961212,51.189655 332.147552,52.149658 335.568359,53.505543 
z"/>
<path fill="#F0F0F1" opacity="1.000000" stroke="none" 
	d="
M176.104370,43.029716 
	C184.795105,37.596554 192.788101,39.550571 196.752640,49.346107 
	C193.501923,48.016190 191.168259,47.485420 189.342850,46.220943 
	C186.148895,44.008476 181.856110,44.070709 179.446884,46.852665 
	C176.875702,49.821640 176.989624,56.537323 179.659286,59.372818 
	C182.159286,62.028111 186.386078,61.916168 189.583969,59.602543 
	C191.288620,58.369274 193.537643,57.888439 196.508957,56.671551 
	C193.442688,64.997841 186.400314,67.902588 179.461823,65.030426 
	C172.845444,62.291599 169.890656,53.832592 173.226242,46.896767 
	C173.860092,45.578754 174.939926,44.475220 176.104370,43.029716 
z"/>
<path fill="#F2F2F3" opacity="1.000000" stroke="none" 
	d="
M295.859314,48.136009 
	C295.453644,50.791515 294.582703,53.264168 295.188904,55.296158 
	C295.820679,57.413826 297.547363,60.113106 299.397644,60.719131 
	C301.504669,61.409245 304.329651,60.245911 306.745667,59.551109 
	C308.830963,58.951408 310.780334,57.879082 313.743988,56.605698 
	C311.079987,64.105812 306.132111,66.927856 299.640533,65.896088 
	C293.481018,64.917084 289.280151,59.853180 289.146088,53.245571 
	C289.008331,46.453587 293.267059,41.117321 299.632141,40.106365 
	C306.242126,39.056515 311.088837,41.771370 313.882172,49.417118 
	C310.686310,48.024818 308.353607,47.409645 306.497223,46.112698 
	C303.091095,43.732994 299.638031,44.107418 295.859314,48.136009 
z"/>
<path fill="#E6E7E8" opacity="1.000000" stroke="none" 
	d="
M136.778931,63.611862 
	C135.230484,64.948082 133.686295,65.822029 131.393860,67.119453 
	C131.393860,54.614826 131.393860,43.431610 131.393860,31.953632 
	C133.020477,31.953632 134.596237,31.953632 136.783203,31.953632 
	C136.783203,42.411400 136.783203,52.780499 136.778931,63.611862 
z"/>
<path fill="#141B29" opacity="1.000000" stroke="none" 
	d="
M72.160393,45.410316 
	C72.160576,47.030777 72.200684,48.196823 72.153496,49.359325 
	C71.973137,53.802277 73.495819,60.241859 71.184242,62.244904 
	C67.137283,65.751694 60.730236,66.534843 54.760555,68.654945 
	C54.760555,62.100498 54.613049,56.291904 54.881397,50.502586 
	C54.937004,49.303005 56.298855,47.599998 57.467594,47.115582 
	C62.036987,45.221680 66.770386,43.723473 71.861610,41.930721 
	C71.981857,43.148277 72.071037,44.051281 72.160393,45.410316 
z"/>
<path fill="#1A212F" opacity="1.000000" stroke="none" 
	d="
M64.916580,36.972816 
	C55.861279,41.842335 47.162556,42.458248 38.360767,37.315903 
	C36.954540,36.494335 35.299805,36.099869 33.768646,35.486259 
	C33.672146,35.447578 33.651485,35.219631 33.595558,35.080849 
	C45.196342,27.805063 56.879711,27.280901 68.753487,35.245132 
	C67.710350,35.736351 66.499619,36.306484 64.916580,36.972816 
z"/>
<path fill="#1F2634" opacity="1.000000" stroke="none" 
	d="
M107.049110,56.050529 
	C107.106682,54.299618 107.164246,53.003242 107.238441,51.332153 
	C111.636467,51.527348 116.242867,49.665756 119.291344,53.990883 
	C120.125435,55.174274 120.041229,58.665581 119.424004,58.938385 
	C115.757835,60.558765 111.811279,61.544762 107.049103,63.027149 
	C107.049103,59.729794 107.049103,58.117428 107.049110,56.050529 
z"/>
<path fill="#1E2533" opacity="1.000000" stroke="none" 
	d="
M107.579475,38.672897 
	C110.545769,38.456451 113.322426,38.074146 115.764931,38.806408 
	C117.181046,39.230953 118.994431,41.497913 118.922531,42.844650 
	C118.847733,44.245525 116.921234,46.313828 115.441177,46.700752 
	C112.982246,47.343590 110.232979,46.875828 107.249626,46.875828 
	C107.249626,44.151604 107.249626,41.563168 107.579475,38.672897 
z"/>
<path fill="#181F2E" opacity="1.000000" stroke="none" 
	d="
M233.070145,45.132774 
	C233.070145,42.694302 233.070145,40.737068 233.070145,38.435867 
	C238.968475,38.135170 244.578613,37.563404 248.190399,42.909409 
	C251.104965,47.223438 251.143616,52.207413 248.592941,56.601189 
	C245.210693,62.427402 239.301590,61.899353 233.070145,61.588036 
	C233.070145,56.125095 233.070145,50.869556 233.070145,45.132774 
z"/>
<path fill="#161D2B" opacity="1.000000" stroke="none" 
	d="
M268.168152,60.145714 
	C264.289612,57.072845 264.070190,53.124062 265.497894,49.504635 
	C266.260895,47.570297 268.775970,45.755131 270.887360,45.057510 
	C274.124329,43.987976 277.815948,45.115799 278.748474,48.486530 
	C279.581848,51.498985 279.521027,55.483562 278.168518,58.199455 
	C276.321564,61.908257 272.284943,61.971668 268.168152,60.145714 
z"/>
<path fill="#191F2E" opacity="1.000000" stroke="none" 
	d="
M150.356232,59.779701 
	C145.803619,53.461807 147.295090,46.270184 153.106903,44.989243 
	C156.639709,44.210602 159.790787,45.041973 161.676483,48.346378 
	C163.650589,51.805729 163.582886,55.420300 160.955307,58.519978 
	C158.083466,61.907810 154.483978,62.059471 150.356232,59.779701 
z"/>
</svg>